<svg xmlns="http://www.w3.org/2000/svg" width="256" height="256" viewBox="0 0 100 100"><rect width="100" height="100" rx="50" fill="#7d6ee7"></rect><path fill="#fff" d="M31.88 74.19L31.88 74.19Q31.22 74.68 29.75 75.13Q28.27 75.58 26.47 75.58L26.47 75.58Q24.42 75.58 22.86 75.01Q21.30 74.44 20.73 73.29L20.73 73.29Q19.66 71.24 18.27 67.96Q16.87 64.68 15.31 60.66Q13.76 56.64 12.16 52.17Q10.56 47.70 9.00 43.28Q7.44 38.85 6.13 34.67Q4.82 30.48 3.83 27.04L3.83 27.04Q4.49 26.22 5.80 25.52Q7.11 24.83 8.67 24.83L8.67 24.83Q10.64 24.83 11.71 25.73Q12.77 26.63 13.43 28.68L13.43 28.68Q16.63 38.68 19.70 47.95Q22.78 57.22 26.38 66.89L26.38 66.89L26.79 66.89Q28.35 62.46 30.07 57.42Q31.80 52.38 33.48 47.09Q35.16 41.80 36.72 36.39Q38.27 30.98 39.59 25.73L39.59 25.73Q41.23 24.83 43.52 24.83L43.52 24.83Q45.41 24.83 46.68 25.77Q47.95 26.71 47.95 28.60L47.95 28.60Q47.95 29.99 47.05 33.39Q46.15 36.80 44.67 41.27Q43.19 45.74 41.39 50.78Q39.59 55.82 37.82 60.41Q36.06 65.01 34.46 68.70Q32.86 72.39 31.88 74.19ZM66.15 56.97L66.15 74.93Q65.50 75.17 64.43 75.38Q63.37 75.58 62.05 75.58L62.05 75.58Q59.51 75.58 58.41 74.64Q57.30 73.70 57.30 71.48L57.30 71.48L57.30 29.17Q57.30 27.78 58.08 27.00Q58.86 26.22 60.25 25.81L60.25 25.81Q62.79 24.91 66.32 24.58Q69.84 24.25 73.37 24.25L73.37 24.25Q84.03 24.25 89.24 28.56Q94.44 32.86 94.44 40.65L94.44 40.65Q94.44 46.06 91.62 49.88Q88.79 53.69 83.54 55.58L83.54 55.58Q85.51 58.04 87.39 60.45Q89.28 62.87 90.96 65.05Q92.64 67.22 93.99 68.98Q95.35 70.75 96.17 71.89L96.17 71.89Q95.76 73.78 94.36 74.76Q92.97 75.75 91.33 75.75L91.33 75.75Q89.36 75.75 88.21 74.80Q87.06 73.86 85.92 72.22L85.92 72.22L75.34 56.97L66.15 56.97ZM66.07 49.92L74.03 49.92Q79.36 49.92 82.47 47.62Q85.59 45.33 85.59 40.65L85.59 40.65Q85.59 36.06 82.43 33.76Q79.27 31.47 73.12 31.47L73.12 31.47Q71.24 31.47 69.39 31.63Q67.55 31.80 66.07 32.04L66.07 32.04L66.07 49.92Z"></path></svg>